<svg xmlns="http://www.w3.org/2000/svg" xmlns:xlink="http://www.w3.org/1999/xlink" viewBox="0 0 68 47" fill="#fff" fill-rule="evenodd" stroke="#000" stroke-linecap="round" stroke-linejoin="round"><use xlink:href="#laptop-A" x=".5" y=".5"/><symbol id="laptop-A" overflow="visible"><g stroke="#fff" stroke-linejoin="miter"><path d="M65.335 0l1.574 1.968L62.58 26.37l-1.968-1.181L65.335 0z" fill="currentColor" stroke-width=".787"/><path d="M18.105 25.189l1.574 1.181h42.9l-1.968-1.181H18.105z" fill="currentColor" stroke-width=".394"/></g><use xlink:href="#laptop-C" stroke="none" fill="currentColor"/><use xlink:href="#laptop-C" stroke="#fff" fill="none" stroke-linejoin="miter" stroke-width=".787"/><path d="M0 40.539v4.723h46.049v-4.723H0z" stroke="none" fill="currentColor"/><g stroke="#fff"><g stroke-linejoin="miter" stroke-width=".787"><path d="M0 40.539v4.723h46.049v-4.723H0" fill="none" stroke-linecap="square"/><g fill="currentColor"><path d="M18.498 27.157h42.507L46.049 40.539H0l18.498-13.382zm42.113-1.968L65.335 0h-41.72l-5.51 25.189h42.507z"/><path d="M57.07 22.041l3.542-18.892H26.764l-3.936 18.892H57.07z"/></g></g><g fill="none" stroke-linecap="square"><path d="M19.286 27.551L8.659 36.21m14.169-8.659L12.201 36.21m14.169-8.659L15.744 36.21m14.169-8.659l-11.02 8.659m14.169-8.659L22.434 36.21m14.169-8.659L25.977 36.21m14.169-8.659L29.519 36.21m14.169-8.659l-11.02 8.659m14.169-8.659L36.21 36.21m14.169-8.659L39.752 36.21m14.169-8.659L43.294 36.21m14.169-8.659l-11.02 8.659"/><path d="M9.84 35.423h38.177m-35.422-1.968h37.39m-35.029-1.968H52.74m-35.422-1.968h37.784"/></g></g></symbol><defs><path id="laptop-C" d="M61 27.163v3.936l-1.181 1.181s-2.755.787-1.968 2.361L46.044 45.268v-4.723z"/></defs></svg>
