<svg xmlns="http://www.w3.org/2000/svg" xmlns:xlink="http://www.w3.org/1999/xlink" viewBox="0 0 59 53" fill="#fff" fill-rule="evenodd" stroke="#000" stroke-linecap="round" stroke-linejoin="round"><use xlink:href="#pc-A" x=".5" y=".5"/><symbol id="pc-A" overflow="visible"><path d="M49.573 44.459v-9.443H0v9.443h49.573z" stroke="#fff" stroke-linejoin="miter" fill="currentColor" stroke-width=".787"/><path d="M34.229 40.131h12.59z" stroke="none" fill="currentColor"/><path d="M34.229 40.131h12.59" fill="none" stroke="#fff" stroke-linejoin="miter" stroke-width=".787" stroke-linecap="square"/><path d="M34.229 39.737h12.59z" stroke="none" fill="currentColor"/><g stroke="#fff" stroke-linejoin="miter" stroke-width=".787"><path d="M34.229 39.737h12.59" fill="none" stroke-linecap="square"/><g fill="currentColor"><path d="M57.835 35.409v-8.262l-8.262 7.869v9.443l8.262-9.049zM40.917 51.933v-1.967l4.328-6.295v3.934l-4.328 4.328z"/><path d="M40.917 49.966v1.967H1.18v-1.967h39.737z"/><path d="M40.917 49.966H1.18l4.328-6.295h39.737l-4.328 6.295zm16.918-22.819H8.262L0 35.016h49.573l8.262-7.869z"/><path d="M42.885 30.295V5.508H9.049v24.787h33.836z"/></g></g><use xlink:href="#pc-C" stroke="none" fill="currentColor"/><g stroke="#fff" stroke-linejoin="miter" stroke-width=".787"><use xlink:href="#pc-C" fill="none"/><path d="M48.786 0H14.557L9.049 5.508h33.836L48.786 0z" fill="currentColor"/><path d="M48.787 25.18V0l-5.901 5.508v24.787l5.901-5.115z" fill="currentColor"/></g></symbol><defs><path id="pc-C" d="M11.798 11.023c0-2.754 2.361-3.148 2.361-3.148h22.819c3.148 0 3.148 3.148 3.148 3.148v14.164c0 1.574-2.754 2.361-2.754 2.361H14.552c-1.967 0-2.754-2.361-2.754-2.361z"/></defs></svg>
